<svg xmlns="http://www.w3.org/2000/svg" width="24" height="24" fill="none" id="roblox"><path fill="#000" fill-rule="evenodd" d="M7.346 2.857a.5.5 0 0 1 .64-.299l13.156 4.788a.5.5 0 0 1 .299.641l-4.788 13.156a.5.5 0 0 1-.641.299L2.856 16.654a.5.5 0 0 1-.299-.641L7.346 2.857Zm.768.812L3.668 15.885l12.216 4.446L20.33 8.115 8.114 3.67Z" clip-rule="evenodd"></path><path fill="#000" fill-rule="evenodd" d="M10.036 8.625a.5.5 0 0 1 .64-.3l4.7 1.711a.5.5 0 0 1 .298.64l-1.71 4.7a.5.5 0 0 1-.64.298l-4.7-1.71a.5.5 0 0 1-.298-.64l1.71-4.7Zm.769.812-1.368 3.758 3.758 1.368 1.368-3.758-3.758-1.368Z" clip-rule="evenodd"></path></svg>