<svg xmlns="http://www.w3.org/2000/svg" width="512" height="512" fill-rule="evenodd" clip-rule="evenodd" image-rendering="optimizeQuality" shape-rendering="geometricPrecision" text-rendering="geometricPrecision" viewBox="0 0 512 512" id="youtube"><path d="M329.61 262.83l-115.29 63.23c-5.01,2.71 -9.52,-0.92 -9.52,-6.61l0 -129.8c0,-5.77 4.65,-9.39 9.67,-6.54l116.08 66.56c5.13,2.93 4.26,10.34 -0.94,13.16zm182.39 -74.57c0,-61.56 -49.9,-111.46 -111.45,-111.46l-289.09 0c-61.55,0 -111.46,49.9 -111.46,111.46l0 135.48c0,61.56 49.91,111.46 111.46,111.46l289.09 0c61.55,0 111.45,-49.9 111.45,-111.46l0 -135.48z"></path></svg>