<svg width="260" height="132" viewBox="0 0 260 132" fill="none" xmlns="http://www.w3.org/2000/svg">
<path d="M133.5 103.5C125 103.5 119.411 101.467 113.455 98.3997C107.534 95.301 102.978 90.9243 99.7866 85.2699C96.5955 79.5834 95 72.8907 95 65.1917C95 57.6204 96.5955 50.9756 99.7866 45.2572C103.013 39.5069 107.516 35.0345 113.295 31.8398C119.075 28.6133 125.864 27 133.665 27C138.7 27 143.451 27.7348 147.918 29.2043C152.421 30.6419 156.392 32.8781 159.831 35.913C163.306 38.9479 166.036 42.8134 168.022 47.5095C170.007 52.1736 171 57.7322 171 64.1854V69.5044H104.041V57.8121H152.545C152.51 54.4897 151.712 51.5347 150.152 48.947C148.592 46.3274 146.411 44.2669 143.61 42.7654C140.845 41.264 137.618 40.5132 133.931 40.5132C129.995 40.5132 126.538 41.3758 123.56 43.1009C120.582 44.794 118.259 47.0303 116.593 49.8096C114.962 52.557 114.129 55.5759 114.093 58.8663V69.0731C114.093 73.3539 114.962 77.0277 116.699 80.0946C118.436 83.1295 120.865 85.4615 123.985 87.0908C127.105 88.6881 130.757 89.4868 134.941 89.4868C137.742 89.4868 140.277 89.1353 142.547 88.4325C144.816 87.6978 146.784 86.6276 148.45 85.2219C150.116 83.8163 151.375 82.0752 152.226 79.9987L168.022 80.0946C166.887 84.3754 165 88 161.876 91.6272C159.183 94.7543 155 97.5 150.5 100C145.5 102.5 140.019 103.5 133.5 103.5Z" fill="black"/>
<path d="M7.00009 71.5C7.00009 71.5 46.5001 8 130.25 8C214 8 253.5 71.5 253.5 71.5" stroke="black" stroke-width="15"/>
<path d="M7 62.5C7 62.5 46.5 124 130.25 124C214 124 253.5 62.5 253.5 62.5" stroke="black" stroke-width="15"/>
</svg>
