<svg width="260" height="131" viewBox="0 0 260 131" fill="none" xmlns="http://www.w3.org/2000/svg">
<path d="M131.364 103.364C124.364 103.364 118.318 101.909 113.227 99C108.167 96.0606 104.273 91.9091 101.545 86.5455C98.8182 81.1515 97.4545 74.803 97.4545 67.5C97.4545 60.3182 98.8182 54.0152 101.545 48.5909C104.303 43.1364 108.152 38.8939 113.091 35.8636C118.03 32.803 123.833 31.2727 130.5 31.2727C134.803 31.2727 138.864 31.9697 142.682 33.3636C146.53 34.7273 149.924 36.8485 152.864 39.7273C155.833 42.6061 158.167 46.2727 159.864 50.7273C161.561 55.1515 162.409 60.4242 162.409 66.5455V71.5909H105.182V60.5H146.636C146.606 57.3485 145.924 54.5455 144.591 52.0909C143.258 49.6061 141.394 47.6515 139 46.2273C136.636 44.803 133.879 44.0909 130.727 44.0909C127.364 44.0909 124.409 44.9091 121.864 46.5455C119.318 48.1515 117.333 50.2727 115.909 52.9091C114.515 55.5151 113.803 58.3788 113.773 61.5V71.1818C113.773 75.2424 114.515 78.7273 116 81.6364C117.485 84.5152 119.561 86.7273 122.227 88.2727C124.894 89.7879 128.015 90.5455 131.591 90.5455C133.985 90.5455 136.152 90.2121 138.091 89.5455C140.03 88.8485 141.712 87.8333 143.136 86.5C144.561 85.1667 145.636 83.5152 146.364 81.5455L161.727 83.2727C160.758 87.3333 158.909 90.8788 156.182 93.9091C153.485 96.9091 150.03 99.2424 145.818 100.909C141.606 102.545 136.788 103.364 131.364 103.364Z" fill="black"/>
<path d="M7.00009 71C7.00009 71 46.5001 7.5 130.25 7.5C214 7.5 253.5 71 253.5 71" stroke="black" stroke-width="15"/>
<path d="M7 62C7 62 46.5 123.5 130.25 123.5C214 123.5 253.5 62 253.5 62" stroke="black" stroke-width="15"/>
</svg>
